HIERARCHY
ROOT hip
{
  OFFSET 0 0 0
  CHANNELS 6 Xposition Yposition Zposition Zrotation Yrotation Xrotation
  JOINT abdomen
  {
    OFFSET 0 20.6881 -0.73152
    CHANNELS 3 Zrotation Xrotation Yrotation
    JOINT chest
    {
      OFFSET 0 11.7043 -0.48768
      CHANNELS 3 Zrotation Xrotation Yrotation
      JOINT neck
      {
        OFFSET 0 22.1894 -2.19456
        CHANNELS 3 Zrotation Xrotation Yrotation
        JOINT head
        {
          OFFSET -0.24384 7.07133 1.2192
          CHANNELS 3 Zrotation Xrotation Yrotation
          JOINT leftEye
          {
            OFFSET 4.14528 8.04674 8.04672
            CHANNELS 3 Zrotation Xrotation Yrotation
            End Site
            {
              OFFSET 1 0 0
            }
          }
          JOINT rightEye
          {
            OFFSET -3.6576 8.04674 8.04672
            CHANNELS 3 Zrotation Xrotation Yrotation
            End Site
            {
              OFFSET 1 0 0
            }
          }
        }
      }
      JOINT rCollar
      {
        OFFSET -2.68224 19.2634 -4.8768
        CHANNELS 3 Zrotation Xrotation Yrotation
        JOINT rShldr
        {
          OFFSET -8.77824 -1.95073 1.46304
          CHANNELS 3 Zrotation Xrotation Yrotation
          JOINT rForeArm
          {
            OFFSET -28.1742 -1.7115 0.48768
            CHANNELS 3 Zrotation Xrotation Yrotation
            JOINT rHand
            {
              OFFSET -22.5879 0.773209 7.07136
              CHANNELS 3 Zrotation Xrotation Yrotation
              JOINT rThumb1
              {
                OFFSET -1.2192 -0.487915 3.41376
                CHANNELS 3 Zrotation Xrotation Yrotation
                JOINT rThumb2
                {
                  OFFSET -3.37035 -0.52449 3.41376
                  CHANNELS 3 Zrotation Xrotation Yrotation
                  End Site
                  {
                    OFFSET -1.78271 -1.18214 1.43049
                  }
                }
              }
              JOINT rIndex1
              {
                OFFSET -7.75947 0.938293 5.60832
                CHANNELS 3 Zrotation Xrotation Yrotation
                JOINT rIndex2
                {
                  OFFSET -2.54057 -0.884171 1.56538
                  CHANNELS 3 Zrotation Xrotation Yrotation
                  End Site
                  {
                    OFFSET -1.62519 -0.234802 1.16502
                  }
                }
              }
              JOINT rMid1
              {
                OFFSET -8.24714 1.18213 3.41376
                CHANNELS 3 Zrotation Xrotation Yrotation
                JOINT rMid2
                {
                  OFFSET -3.10165 -0.590103 1.0647
                  CHANNELS 3 Zrotation Xrotation Yrotation
                  End Site
                  {
                    OFFSET -2.48547 -0.328903 0.83742
                  }
                }
              }
              JOINT rRing1
              {
                OFFSET -8.82822 0.546677 1.51678
                CHANNELS 3 Zrotation Xrotation Yrotation
                JOINT rRing2
                {
                  OFFSET -2.60934 -0.819778 -0.0198488
                  CHANNELS 3 Zrotation Xrotation Yrotation
                  End Site
                  {
                    OFFSET -2.33842 -0.294052 0.168128
                  }
                }
              }
              JOINT rPinky1
              {
                OFFSET -8.27202 -0.0477905 -0.4584
                CHANNELS 3 Zrotation Xrotation Yrotation
                JOINT rPinky2
                {
                  OFFSET -1.82734 -0.647385 -0.700984
                  CHANNELS 3 Zrotation Xrotation Yrotation
                  End Site
                  {
                    OFFSET -1.69225 -0.51767 -0.607171
                  }
                }
              }
            }
          }
        }
      }
      JOINT lCollar
      {
        OFFSET 2.68224 19.2634 -4.8768
        CHANNELS 3 Zrotation Xrotation Yrotation
        JOINT lShldr
        {
          OFFSET 8.77824 -1.95073 1.46304
          CHANNELS 3 Zrotation Xrotation Yrotation
          JOINT lForeArm
          {
            OFFSET 28.1742 -1.7115 0.48768
            CHANNELS 3 Zrotation Xrotation Yrotation
            JOINT lHand
            {
              OFFSET 22.5879 0.773209 7.07136
              CHANNELS 3 Zrotation Xrotation Yrotation
              JOINT lThumb1
              {
                OFFSET 1.2192 -0.487915 3.41376
                CHANNELS 3 Zrotation Xrotation Yrotation
                JOINT lThumb2
                {
                  OFFSET 3.37035 -0.52449 3.41376
                  CHANNELS 3 Zrotation Xrotation Yrotation
                  End Site
                  {
                    OFFSET 1.78271 -1.18214 1.43049
                  }
                }
              }
              JOINT lIndex1
              {
                OFFSET 7.75947 0.938293 5.60832
                CHANNELS 3 Zrotation Xrotation Yrotation
                JOINT lIndex2
                {
                  OFFSET 2.54057 -0.884171 1.56538
                  CHANNELS 3 Zrotation Xrotation Yrotation
                  End Site
                  {
                    OFFSET 1.62519 -0.234802 1.16502
                  }
                }
              }
              JOINT lMid1
              {
                OFFSET 8.24714 1.18213 3.41376
                CHANNELS 3 Zrotation Xrotation Yrotation
                JOINT lMid2
                {
                  OFFSET 3.10165 -0.590103 1.0647
                  CHANNELS 3 Zrotation Xrotation Yrotation
                  End Site
                  {
                    OFFSET 2.48547 -0.328903 0.83742
                  }
                }
              }
              JOINT lRing1
              {
                OFFSET 8.82822 0.546677 1.51678
                CHANNELS 3 Zrotation Xrotation Yrotation
                JOINT lRing2
                {
                  OFFSET 2.60934 -0.819778 -0.0198488
                  CHANNELS 3 Zrotation Xrotation Yrotation
                  End Site
                  {
                    OFFSET 2.33842 -0.294052 0.168128
                  }
                }
              }
              JOINT lPinky1
              {
                OFFSET 8.27202 -0.0477905 -0.4584
                CHANNELS 3 Zrotation Xrotation Yrotation
                JOINT lPinky2
                {
                  OFFSET 1.82734 -0.647385 -0.700984
                  CHANNELS 3 Zrotation Xrotation Yrotation
                  End Site
                  {
                    OFFSET 1.69225 -0.51767 -0.607171
                  }
                }
              }
            }
          }
        }
      }
    }
  }
  JOINT rButtock
  {
    OFFSET -8.77824 4.35084 1.2192
    CHANNELS 3 Zrotation Xrotation Yrotation
    JOINT rThigh
    {
      OFFSET 0 -1.70687 -2.19456
      CHANNELS 3 Zrotation Xrotation Yrotation
      JOINT rShin
      {
        OFFSET 0 -36.8199 0.73152
        CHANNELS 3 Zrotation Xrotation Yrotation
        JOINT rFoot
        {
          OFFSET 0.73152 -45.1104 -5.12064
          CHANNELS 3 Zrotation Xrotation Yrotation
          End Site
          {
            OFFSET -1.1221 -3.69964 12.103
          }
        }
      }
    }
  }
  JOINT lButtock
  {
    OFFSET 8.77824 4.35084 1.2192
    CHANNELS 3 Zrotation Xrotation Yrotation
    JOINT lThigh
    {
      OFFSET 0 -1.70687 -2.19456
      CHANNELS 3 Zrotation Xrotation Yrotation
      JOINT lShin
      {
        OFFSET 0 -36.8199 0.73152
        CHANNELS 3 Zrotation Xrotation Yrotation
        JOINT lFoot
        {
          OFFSET -0.73152 -45.1104 -5.12064
          CHANNELS 3 Zrotation Xrotation Yrotation
          End Site
          {
            OFFSET 1.1221 -3.69964 12.103
          }
        }
      }
    }
  }
}
MOTION
Frames:	4
Frame Time:	0.03333
-0.5021 51.220299999999995 4.3379 -170.076392 24.413427 -170.896937 2.328187 12.199334 50.728933 -0.782881 -8.871803 -44.454815 -10.405743 25.58639 -75.820331 46.223274 7.60274 94.791697 -0.003938 0.0 -0.004223 0.001135 -0.0 -0.004939 -155.614054 -4.236536 161.990638 124.024097 -29.458586 143.606877 -103.500733 -3.36645 34.926475 147.529416 -73.028311 126.039404 -176.92777 -14.532397 89.658975 -53.863304 -8.385283 9.273124 -157.327957 -28.21821 122.488181 -61.499271 57.383203 46.500352 -0.569999 1.648384 0.323646 -162.987142 -3.90864 143.262605 -0.014135 -1.323232 -0.415371 -155.314691 -1.237232 171.997929 -4.782293 -11.117091 -4.48055 -24.071413 -41.368681 -24.981531 153.155494 9.523145 -158.798239 45.500915 -10.192508 8.553205 -34.363195 20.84485 80.718792 -167.263181 -9.238575 -148.207358 164.886576 -2.560097 -89.607865 70.839826 -0.500446 -23.839577 2.68492 4.227133 -1.583726 169.740627 -24.212225 -109.075176 89.834823 60.702574 -81.263169 -4.47325 -3.100462 0.213426 0.021412 -1.72503 0.543288 -11.581302 -23.571504 2.841843 144.64627 10.41704 141.351892 127.028545 -29.097603 124.537931 -179.998685 75.751855 -0.001357 132.576394 67.348317 -38.792033 -67.710869 1.676144 -91.089448 -86.805949 45.035395 -162.509353 0.0 0.001114 -0.000519 77.435167 -60.210173 -180.0 78.855983 -29.719358 -20.92032 -67.721338 51.99499 -7.227316
-0.1673 51.4155 5.307300000000001 -170.463827 24.140876 -171.253778 2.077848 9.252959 135.82308 -6.454454 -2.079787 -129.603788 10.963803 29.730458 122.01107 -41.76498 25.606059 -91.892676 0.004632 0.0 0.00047 -0.000995 -0.0 0.001396 -130.420209 54.549113 134.287485 80.974396 -28.491584 74.269385 -176.007282 31.767888 59.036217 -173.909611 -0.674096 142.407018 -164.493477 -2.166734 89.562465 -70.769376 -0.666178 23.966406 88.792725 -75.49851 40.052619 -163.562347 -27.331766 114.874138 -4.682314 12.536268 2.931802 -42.036465 58.560115 36.119381 -145.119066 0.185539 -179.186453 -156.270094 63.711167 172.35019 -71.966169 -51.80648 -70.475607 2.265259 -2.998243 -1.816627 157.323342 -17.488989 -164.608724 50.690699 -26.60419 33.026507 88.834363 -34.691821 102.033872 -19.470638 -33.912219 -13.341214 -71.830871 -48.26373 -25.792107 12.097975 -41.985077 31.086202 145.337446 -6.264264 -118.678792 172.623658 -34.656532 -117.528692 -68.983357 -80.154209 -40.577401 -167.498163 -64.007292 -132.857021 69.296762 72.947636 -87.01626 -5.862707 0.011177 4.406297 1.203666 -3.047169 1.118001 12.82299 -29.987275 14.022537 0.001269 -0.001401 0.000317 -17.06737 -1.500936 0.0 -20.424862 66.451403 -129.744646 -168.552574 27.133002 -114.309558 -0.000193 -0.000485 0.000248 75.532544 -60.666832 180.0 82.878196 -20.20233 134.837034 -40.681717 37.487118 134.502921
0.21320000000000003 51.6173 6.3643 -170.869077 23.813425 -171.631735 1.812606 9.354889 141.049911 -6.264751 -1.379942 -134.571164 11.620322 26.125636 99.979723 -43.671347 10.315739 -75.881723 0.00051 0.0 0.000515 0.00051 0.0 0.000515 -40.03888 -86.056168 -61.569943 -54.723937 -37.250184 -50.288667 -175.783676 13.699426 -97.21933 -9.01103 -2.261665 -2.893935 4.5316 -4.513807 -0.520578 2.710552 -5.444873 -5.444967 -123.870775 22.788489 104.45528 -171.540403 -26.338751 116.894846 -139.241357 37.933919 127.557458 14.27197 -32.165362 -0.922516 -145.111404 -0.668805 -178.919435 -150.281975 -35.130643 -173.025248 -0.530062 -1.363993 -0.490651 -153.977659 35.841763 -148.241692 157.643635 -66.710625 -175.897495 102.359439 -36.709807 107.20858 160.46263 -37.379891 128.919656 3.528327 28.161573 -2.664674 171.705572 -9.38863 -89.948894 4.545605 -51.642756 -6.60142 149.818013 -14.317268 -120.599883 134.466245 32.314704 -108.248744 167.374407 -28.008468 -145.269957 7.559565 26.10352 -6.42732 73.164506 -72.14025 90.199166 147.23943 -46.314319 175.866339 11.663224 -23.131245 11.068521 19.67596 -37.803054 21.003442 0.001998 1.3e-05 0.000499 -16.383127 -2.468338 -1.059746 -29.612532 59.220095 -51.120519 94.016524 39.110212 7.400134 0.0 1.3e-05 -0.001054 71.346148 -59.546545 69.237406 10.958578 77.058773 -119.463119 -12.93108 28.688027 103.915114
0.6292 51.84029999999999 7.515 -171.323877 23.397862 -172.017341 2.294157 9.116503 165.81023 -5.038072 1.221043 -159.07687 3.009506 16.376405 24.762763 -11.481986 -33.894396 -8.585794 -0.005076 -0.0 0.00144 0.000548 0.0 0.00047 -130.420083 54.549305 134.287936 -177.345988 -13.127958 117.684839 104.276994 6.979693 8.361705 -93.72383 65.680983 71.601552 -164.492879 -2.167179 89.561617 -46.683819 -16.417926 12.544702 -130.885237 15.213648 109.736396 156.668632 -60.345003 98.764668 -8.417664 20.880136 5.645933 -163.655714 -6.18868 143.482557 -145.119326 0.185981 -179.185401 10.589209 66.554506 0.199975 -5.649323 -12.860489 -5.302713 -94.418874 -51.914741 -94.030829 155.504362 -3.514451 -161.83869 -4.910757 76.792952 47.373153 -136.779517 -84.117831 -52.82998 -156.590839 -35.195367 -139.635899 6.769825 6.520969 -1.414013 131.88101 -31.990047 -113.211752 -10.211295 -18.050679 4.564723 165.788737 -22.714239 -109.931929 -89.034659 -81.394141 -59.760371 6.585894 24.128621 -5.532159 145.122237 1.975 179.747713 134.340042 -64.926284 156.14946 103.688042 -45.140287 101.853202 151.520253 27.947553 145.608811 179.998705 75.749099 -0.0 137.528751 66.545864 39.705141 -35.482005 60.572584 -57.662099 -7.704508 -77.274973 75.4859 179.990556 75.749369 0.009744 -153.125685 -3.216692 83.681576 68.810586 -2.047205 -93.102536 -76.305578 -22.746278 25.297807
